<?xml version="1.0" standalone="no"?>
<svg xmlns="http://www.w3.org/2000/svg" viewBox="0 0 98 69" width="98" height="69"><g fill="#d6af69" color="#d6af69" transform="translate(31.365 0) scale(0.35) "><svg width="100.0" height="95.0" x="0.0" y="0.0" viewBox="0 0 100 95"><path fill="currentColor" d="M0,0v95h20V77.5c0-1.385,0.892-2.5,2-2.5h56c1.107,0,2,1.115,2,2.5V95h20V0H80v17.5c0,1.385-0.893,2.5-2,2.5  H22c-1.108,0-2-1.115-2-2.5V0H0z M7,5h6c1.108,0,2,0.446,2,1v3c0,0.554-0.892,1-2,1H7c-1.108,0-2-0.446-2-1V6C5,5.446,5.892,5,7,5z   M87,5h6c1.107,0,2,0.446,2,1v3c0,0.554-0.893,1-2,1h-6c-1.107,0-2-0.446-2-1V6C85,5.446,85.893,5,87,5z M7,15.531h6  c1.108,0,2,0.446,2,1v3c0,0.554-0.892,1-2,1H7c-1.108,0-2-0.446-2-1v-3C5,15.977,5.892,15.531,7,15.531z M87,15.531h6  c1.107,0,2,0.446,2,1v3c0,0.554-0.893,1-2,1h-6c-1.107,0-2-0.446-2-1v-3C85,15.977,85.893,15.531,87,15.531z M7,25h6  c1.108,0,2,0.446,2,1v3c0,0.554-0.892,1-2,1H7c-1.108,0-2-0.446-2-1v-3C5,25.446,5.892,25,7,25z M22,25h56c1.107,0,2,1.003,2,2.25  v40.5c0,1.246-0.893,2.25-2,2.25H22c-1.108,0-2-1.004-2-2.25v-40.5C20,26.003,20.892,25,22,25z M87,25h6c1.107,0,2,0.446,2,1v3  c0,0.554-0.893,1-2,1h-6c-1.107,0-2-0.446-2-1v-3C85,25.446,85.893,25,87,25z M7,35h6c1.108,0,2,0.446,2,1v3c0,0.554-0.892,1-2,1H7  c-1.108,0-2-0.446-2-1v-3C5,35.446,5.892,35,7,35z M87,35h6c1.107,0,2,0.446,2,1v3c0,0.554-0.893,1-2,1h-6c-1.107,0-2-0.446-2-1v-3  C85,35.446,85.893,35,87,35z M7,45h6c1.108,0,2,0.446,2,1v3c0,0.555-0.892,1-2,1H7c-1.108,0-2-0.445-2-1v-3C5,45.446,5.892,45,7,45z   M87,45h6c1.107,0,2,0.446,2,1v3c0,0.555-0.893,1-2,1h-6c-1.107,0-2-0.445-2-1v-3C85,45.446,85.893,45,87,45z M7,55h6  c1.108,0,2,0.445,2,1v3c0,0.555-0.892,1-2,1H7c-1.108,0-2-0.445-2-1v-3C5,55.445,5.892,55,7,55z M87,55h6c1.107,0,2,0.445,2,1v3  c0,0.555-0.893,1-2,1h-6c-1.107,0-2-0.445-2-1v-3C85,55.445,85.893,55,87,55z M7,65h6c1.108,0,2,0.445,2,1v3c0,0.555-0.892,1-2,1H7  c-1.108,0-2-0.445-2-1v-3C5,65.445,5.892,65,7,65z M87,65h6c1.107,0,2,0.445,2,1v3c0,0.555-0.893,1-2,1h-6c-1.107,0-2-0.445-2-1v-3  C85,65.445,85.893,65,87,65z M7,75h6c1.108,0,2,0.445,2,1v3c0,0.555-0.892,1-2,1H7c-1.108,0-2-0.445-2-1v-3C5,75.445,5.892,75,7,75z   M87,75h6c1.107,0,2,0.445,2,1v3c0,0.555-0.893,1-2,1h-6c-1.107,0-2-0.445-2-1v-3C85,75.445,85.893,75,87,75z M7,85h6  c1.108,0,2,0.445,2,1v3c0,0.555-0.892,1-2,1H7c-1.108,0-2-0.445-2-1v-3C5,85.445,5.892,85,7,85z M87,85h6c1.107,0,2,0.445,2,1v3  c0,0.555-0.893,1-2,1h-6c-1.107,0-2-0.445-2-1v-3C85,85.445,85.893,85,87,85z"></path></svg></g><line x1="32.414" y1="39.25" x2="65.314" y2="39.25" stroke="#800707" stroke-linecap="round"></line><path fill="#800707" fill-rule="nonzero" d="M5.26 18.55Q2.54 18.55 1.27 17.18Q0 15.82 0 12.65L0 12.65Q0 10.13 0.85 7.22Q1.70 4.32 3.59 2.24Q5.47 0.17 8.38 0.17L8.38 0.17Q10.18 0.17 11.28 0.96Q12.38 1.75 12.38 3.38L12.38 3.38Q12.38 4.42 11.98 5.00Q11.57 5.59 10.70 5.59L10.70 5.59Q9.84 5.59 9.34 4.97L9.34 4.97Q9.77 4.75 10.10 4.10Q10.44 3.46 10.44 2.76L10.44 2.76Q10.44 2.11 10.09 1.70Q9.74 1.30 8.98 1.30L8.98 1.30Q7.70 1.30 6.55 3.04Q5.40 4.78 4.69 7.42Q3.98 10.06 3.98 12.50L3.98 12.50Q3.98 14.33 4.61 15.29Q5.23 16.25 6.86 16.25L6.86 16.25Q8.28 16.25 9.48 15.62Q10.68 15 11.54 13.85L11.54 13.85L12.10 14.09Q11.50 15.60 10.32 16.61Q9.14 17.62 7.80 18.08Q6.46 18.55 5.26 18.55L5.26 18.55ZM15.48 4.87Q14.69 4.87 14.14 4.32Q13.58 3.77 13.58 2.98L13.58 2.98Q13.58 2.18 14.14 1.62Q14.69 1.06 15.48 1.06L15.48 1.06Q16.27 1.06 16.84 1.62Q17.40 2.18 17.40 2.98L17.40 2.98Q17.40 3.77 16.84 4.32Q16.27 4.87 15.48 4.87L15.48 4.87ZM13.85 18.31Q12.70 18.31 11.99 17.59Q11.28 16.87 11.28 15.43L11.28 15.43Q11.28 14.83 11.47 13.87L11.47 13.87L13.10 6.17L16.56 6.17L14.83 14.33Q14.74 14.69 14.74 15.10L14.74 15.10Q14.74 15.58 14.96 15.78Q15.19 15.98 15.72 15.98L15.72 15.98Q16.42 15.98 17.02 15.40Q17.62 14.81 17.88 13.87L17.88 13.87L18.89 13.87Q18 16.46 16.61 17.39Q15.22 18.31 13.85 18.31L13.85 18.31ZM26.54 18.31Q25.08 18.31 24.40 17.53Q23.71 16.75 23.71 15.60L23.71 15.60Q23.71 15.10 23.83 14.46Q23.95 13.82 24.08 13.22Q24.22 12.62 24.26 12.46L24.26 12.46Q24.46 11.62 24.62 10.80Q24.79 9.98 24.79 9.48L24.79 9.48Q24.79 8.26 23.93 8.26L23.93 8.26Q23.30 8.26 22.82 8.87Q22.34 9.48 22.06 10.46L22.06 10.46L20.42 18.17L16.97 18.17L19.51 6.17L22.97 6.17L22.70 7.42Q23.90 6.07 25.51 6.07L25.51 6.07Q26.74 6.07 27.46 6.74Q28.18 7.42 28.18 8.78L28.18 8.78Q28.18 9.48 28.01 10.33Q27.84 11.18 27.53 12.41L27.53 12.41Q27.34 13.15 27.18 13.86Q27.02 14.57 27.02 14.98L27.02 14.98Q27.02 15.46 27.24 15.72Q27.46 15.98 27.98 15.98L27.98 15.98Q28.70 15.98 29.14 15.47Q29.57 14.95 30.00 13.87L30.00 13.87L31.01 13.87Q30.12 16.51 28.96 17.41Q27.79 18.31 26.54 18.31L26.54 18.31ZM33.43 18.31Q31.66 18.31 30.67 17.39Q29.69 16.46 29.69 14.50L29.69 14.50Q29.69 12.84 30.34 10.85Q30.98 8.86 32.45 7.40Q33.91 5.95 36.17 5.95L36.17 5.95Q38.81 5.95 38.81 8.26L38.81 8.26Q38.81 9.60 38.04 10.73Q37.27 11.86 36 12.54Q34.73 13.22 33.29 13.32L33.29 13.32Q33.24 14.04 33.24 14.28L33.24 14.28Q33.24 15.46 33.65 15.88Q34.06 16.30 34.97 16.30L34.97 16.30Q36.26 16.30 37.19 15.70Q38.11 15.10 39.22 13.87L39.22 13.87L40.03 13.87Q37.37 18.31 33.43 18.31L33.43 18.31ZM33.48 12.17Q34.37 12.12 35.17 11.54Q35.98 10.97 36.47 10.08Q36.96 9.19 36.96 8.21L36.96 8.21Q36.96 7.22 36.36 7.22L36.36 7.22Q35.50 7.22 34.67 8.74Q33.84 10.25 33.48 12.17L33.48 12.17ZM44.76 23.14Q43.01 23.14 41.94 22.24Q40.87 21.34 40.87 19.87L40.87 19.87Q40.87 18.96 41.30 18.19Q41.74 17.42 42.48 16.98Q43.22 16.54 44.11 16.54L44.11 16.54Q45.02 16.54 45.59 16.99Q46.15 17.45 46.15 18.19L46.15 18.19Q46.15 18.77 45.89 19.10L45.89 19.10Q45.67 18.82 45.30 18.65Q44.93 18.48 44.52 18.48L44.52 18.48Q43.80 18.48 43.34 18.96Q42.89 19.44 42.89 20.21L42.89 20.21Q42.89 20.98 43.33 21.46Q43.78 21.94 44.45 21.94L44.45 21.94Q45.29 21.94 45.89 21.19Q46.49 20.45 46.80 18.98L46.80 18.98L48.00 13.68L47.90 13.68Q47.26 14.59 46.33 15.07Q45.41 15.55 44.30 15.55L44.30 15.55Q42.91 15.55 41.86 14.81Q40.80 14.06 40.24 12.68Q39.67 11.30 39.67 9.48L39.67 9.48Q39.67 6.84 40.82 4.67Q41.98 2.50 43.99 1.25Q46.01 0 48.43 0L48.43 0Q50.47 0 51.66 0.89Q52.85 1.78 52.85 3.31L52.85 3.31Q52.85 4.34 52.34 4.97Q51.84 5.59 51.02 5.59L51.02 5.59Q50.57 5.59 50.17 5.40Q49.78 5.21 49.51 4.85L49.51 4.85Q49.94 4.56 50.24 3.92Q50.54 3.29 50.54 2.64L50.54 2.64Q50.54 1.92 50.12 1.52Q49.70 1.13 48.94 1.13L48.94 1.13Q47.54 1.13 46.25 2.36Q44.95 3.60 44.16 5.59Q43.37 7.58 43.37 9.77L43.37 9.77Q43.37 11.57 43.94 12.52Q44.52 13.46 45.60 13.46L45.60 13.46Q46.90 13.46 47.89 12.10Q48.89 10.73 49.49 8.11L49.49 8.11L52.32 8.14L50.57 16.20Q49.80 19.78 48.40 21.46Q46.99 23.14 44.76 23.14L44.76 23.14ZM52.18 18.17L54.72 6.17L58.18 6.17L57.86 7.66Q58.68 6.94 59.34 6.55Q60.00 6.17 60.77 6.17L60.77 6.17Q61.54 6.17 61.98 6.70Q62.42 7.22 62.42 7.97L62.42 7.97Q62.42 8.66 61.97 9.19Q61.51 9.72 60.70 9.72L60.70 9.72Q60.17 9.72 59.99 9.47Q59.81 9.22 59.71 8.74L59.71 8.74Q59.64 8.42 59.57 8.28Q59.50 8.14 59.30 8.14L59.30 8.14Q58.80 8.14 58.45 8.34Q58.10 8.54 57.55 9.05L57.55 9.05L55.63 18.17L52.18 18.17ZM64.99 18.31Q63.62 18.31 62.71 17.38Q61.80 16.44 61.80 14.45L61.80 14.45Q61.80 12.67 62.51 10.72Q63.22 8.76 64.62 7.40Q66.02 6.05 67.97 6.05L67.97 6.05Q68.95 6.05 69.43 6.38Q69.91 6.72 69.91 7.27L69.91 7.27L69.91 7.44L70.18 6.17L73.63 6.17L71.90 14.33Q71.81 14.69 71.81 15.10L71.81 15.10Q71.81 16.13 72.79 16.13L72.79 16.13Q73.46 16.13 73.96 15.50Q74.45 14.88 74.74 13.87L74.74 13.87L75.74 13.87Q74.86 16.46 73.55 17.39Q72.24 18.31 70.92 18.31L70.92 18.31Q69.91 18.31 69.30 17.75Q68.69 17.18 68.57 16.10L68.57 16.10Q67.87 17.09 67.02 17.70Q66.17 18.31 64.99 18.31L64.99 18.31ZM66.55 15.98Q67.15 15.98 67.74 15.42Q68.33 14.86 68.54 13.87L68.54 13.87L69.70 8.45Q69.70 8.14 69.46 7.84Q69.22 7.54 68.71 7.54L68.71 7.54Q67.75 7.54 66.98 8.65Q66.22 9.77 65.78 11.34Q65.35 12.91 65.35 14.11L65.35 14.11Q65.35 15.31 65.70 15.65Q66.05 15.98 66.55 15.98L66.55 15.98ZM77.11 18.31Q75.96 18.31 75.25 17.59Q74.54 16.87 74.54 15.43L74.54 15.43Q74.54 14.83 74.74 13.87L74.74 13.87L76.18 7.13L75.38 7.13L75.58 6.17L76.37 6.17L77.09 2.86L80.64 2.38L79.82 6.17L81.26 6.17L81.07 7.13L79.63 7.13L78.10 14.33Q78 14.69 78 15.10L78 15.10Q78 15.58 78.23 15.78Q78.46 15.98 78.98 15.98L78.98 15.98Q79.68 15.98 80.28 15.40Q80.88 14.81 81.14 13.87L81.14 13.87L82.15 13.87Q81.26 16.46 79.87 17.39Q78.48 18.31 77.11 18.31L77.11 18.31ZM85.15 4.87Q84.36 4.87 83.81 4.32Q83.26 3.77 83.26 2.98L83.26 2.98Q83.26 2.18 83.81 1.62Q84.36 1.06 85.15 1.06L85.15 1.06Q85.94 1.06 86.51 1.62Q87.07 2.18 87.07 2.98L87.07 2.98Q87.07 3.77 86.51 4.32Q85.94 4.87 85.15 4.87L85.15 4.87ZM83.52 18.31Q82.37 18.31 81.66 17.59Q80.95 16.87 80.95 15.43L80.95 15.43Q80.95 14.83 81.14 13.87L81.14 13.87L82.78 6.17L86.23 6.17L84.50 14.33Q84.41 14.69 84.41 15.10L84.41 15.10Q84.41 15.58 84.64 15.78Q84.86 15.98 85.39 15.98L85.39 15.98Q86.09 15.98 86.69 15.40Q87.29 14.81 87.55 13.87L87.55 13.87L88.56 13.87Q87.67 16.46 86.28 17.39Q84.89 18.31 83.52 18.31L83.52 18.31ZM90.29 18.31Q89.14 18.31 88.34 17.87Q87.55 17.42 87.17 16.72Q86.78 16.01 86.78 15.24L86.78 15.24Q86.78 14.45 87.16 13.86Q87.53 13.27 88.06 13.01L88.06 13.01Q88.99 11.33 89.69 9.61Q90.38 7.90 91.01 5.90L91.01 5.90L94.56 5.42Q94.68 8.50 94.97 12.07L94.97 12.07Q95.09 13.51 95.09 14.16L95.09 14.16Q95.09 14.71 94.99 15.07L94.99 15.07Q96.12 14.42 96.72 13.87L96.72 13.87L97.73 13.87Q96.19 15.65 94.06 16.87L94.06 16.87Q93.36 17.62 92.34 17.96Q91.32 18.31 90.29 18.31L90.29 18.31ZM89.52 16.42Q90.41 16.42 91.01 15.89Q91.61 15.36 91.61 14.18L91.61 14.18Q91.61 13.46 91.46 12.17L91.46 12.17Q91.22 9.43 91.15 8.50L91.15 8.50Q90.58 10.39 89.21 13.03L89.21 13.03Q89.76 13.32 89.76 13.87L89.76 13.87Q89.76 14.33 89.46 14.69Q89.16 15.05 88.70 15.05L88.70 15.05Q88.20 15.05 88.06 14.74L88.06 14.74Q88.06 15.60 88.40 16.01Q88.75 16.42 89.52 16.42L89.52 16.42Z" transform="translate(0, 45.25)"></path></svg>